<?xml version="1.0" encoding="utf-8"?>
<!-- Generator: Adobe Illustrator 25.3.1, SVG Export Plug-In . SVG Version: 6.00 Build 0)  -->
<svg version="1.1" id="Layer_1" xmlns="http://www.w3.org/2000/svg" xmlns:xlink="http://www.w3.org/1999/xlink" x="0px" y="0px"
	 viewBox="0 0 300 300" style="enable-background:new 0 0 300 300;" xml:space="preserve">
<style type="text/css">
	.st0{fill:#FFD700;}
</style>
<g>
	<g>
		<path class="st0" d="M30.1,61.7c1,0.1,1.5,0.6,2,0.9c20.1,11.9,40.1,23.8,60.2,35.7c15,8.9,29.9,17.8,44.8,26.7
			c0.7,0.4,1.5,0.9,2.3,1.3c2.2,1.1,4.3,1.1,6.5,0c0.7-0.4,1.4-0.8,2.1-1.2c19.4-11.5,38.7-23.1,58.1-34.6
			c15.1-9,30.3-17.9,45.4-26.9c1.1-0.6,2.1-1.3,3.3-1.5c0.5,0.3,0.4,0.8,0.4,1.2c0,13,0,26.1,0,39.1c0,0.5,0,1-0.1,1.5
			c-0.2,1.5-1.2,2.4-2.5,3.1c-2.4,1.4-4.8,2.7-7.1,4.1c-20.3,12.1-40.6,24.1-60.9,36.2c-0.8,0.5-1.6,0.9-2.5,1.4
			c-0.5,0.3-0.8,0.6-1,1.1c-0.1,0.4-0.1,0.7,0.2,1c0.4,0.3,0.8,0.6,1.3,0.8c21,12.4,42,24.8,63.1,37.3c2.4,1.4,4.8,2.9,7.3,4.3
			c1.6,0.9,2.3,2.2,2.3,4.1c-0.1,13.4,0,26.8-0.1,40.2c0,0.2,0,0.4,0,0.6c-0.6,0.4-0.9-0.1-1.3-0.3c-5.5-3.2-11-6.5-16.5-9.7
			c-24.7-14.6-49.4-29.2-74.1-43.8c-5.1-3-10.2-6.1-15.3-9.2c-0.9-0.5-1.8-1-2.7-1.4c-1.7-0.7-3.4-0.7-5.1,0c-1,0.4-2,0.9-2.9,1.5
			c-19.5,11.6-39,23.1-58.5,34.7c-15.1,8.9-30.2,17.8-45.3,26.7c-1,0.6-1.9,1.5-3.3,1.5c-0.4-1.1-0.1-2.3-0.2-3.4
			c0-12.1,0-24.2-0.1-36.3c0-2.8,0.9-4.4,3.3-5.7c5.6-3.1,11-6.4,16.5-9.7c1.8-1.1,3.6-2.1,5.4-3.2c0.4-0.3,0.9-0.4,1.1-0.9
			c-0.2-0.5-0.6-0.6-1-0.8c-6.5-3.9-13-7.9-19.7-11.5c-0.8-0.4-1.5-0.9-2.2-1.4c-2.2-1.5-3.3-3.6-3.5-6.2c-0.1-0.6-0.1-1.3-0.1-2
			c0.3-11.9,0.1-23.8,0.1-35.7c0-0.4,0-0.9,0-1.3c0-0.6,0.3-0.7,0.9-0.4c0.4,0.2,0.9,0.5,1.3,0.8c18.7,11.1,37.4,22.1,56.1,33.2
			c0.1,0.1,0.3,0.1,0.4,0.2c1.9,1.6,4.1,1.7,6.4,1.3c2.4-0.4,4.7-1.1,6.7-2.3c0.8-0.4,1.5-1,1.9-1.7c0.6-1,0.3-2.1-0.7-2.6
			c-5.6-2.6-10.7-6.1-16-9.2c-16.6-9.8-33.1-19.7-49.8-29.3c-1.1-0.6-2.2-1.4-3.3-2.2c-2.5-1.9-3.8-4.5-4-7.6
			C30,99.2,30,98.3,30,97.5c0.4-10.9,0.2-21.9,0.1-32.8C30.1,63.7,30.1,62.8,30.1,61.7z"/>
		<path class="st0" d="M219.6,150.1c0.7-0.4,1.1-0.8,1.6-1.1c15.6-9.3,31.3-18.6,46.9-27.8c0.4-0.2,0.7-0.5,1.1-0.7
			c0.5-0.3,0.8-0.1,0.8,0.5c0,0.4,0,0.7,0,1.1c0,18.7,0,37.4,0,56.1c0,0.4,0,0.9,0,1.3c-0.7,0.4-1.1-0.2-1.6-0.5
			c-8.2-4.9-16.5-9.7-24.7-14.6c-7.4-4.4-14.7-8.7-22.1-13.1C221,151,220.4,150.6,219.6,150.1z"/>
	</g>
</g>
<path class="st0" d="M-523.5-213c0.7,0.1,1,0.4,1.4,0.6c14.1,8.3,28.2,16.7,42.3,25.1c10.5,6.2,21,12.5,31.5,18.7
	c0.5,0.3,1.1,0.6,1.6,0.9c1.5,0.8,3,0.7,4.6,0c0.5-0.2,1-0.5,1.5-0.8c13.6-8.1,27.2-16.2,40.8-24.3c10.6-6.3,21.3-12.6,31.9-18.9
	c0.7-0.4,1.5-0.9,2.3-1c0.4,0.2,0.3,0.6,0.3,0.8c0,9.2,0,18.3,0,27.5c0,0.4,0,0.7-0.1,1.1c-0.1,1.1-0.9,1.7-1.8,2.2
	c-1.7,1-3.4,1.9-5,2.9c-14.3,8.5-28.5,16.9-42.8,25.4c-0.6,0.3-1.1,0.7-1.7,1c-0.3,0.2-0.6,0.4-0.7,0.7c-0.1,0.3-0.1,0.5,0.2,0.7
	c0.3,0.2,0.6,0.4,0.9,0.6c14.8,8.7,29.5,17.5,44.3,26.2c1.7,1,3.4,2,5.1,3c1.2,0.6,1.6,1.5,1.6,2.9c0,9.4,0,18.8,0,28.3
	c0,0.2,0,0.3,0,0.5c-0.4,0.3-0.7,0-0.9-0.2c-3.9-2.3-7.7-4.6-11.6-6.8c-17.3-10.3-34.7-20.5-52-30.8c-3.6-2.1-7.2-4.3-10.7-6.4
	c-0.6-0.4-1.2-0.7-1.9-1c-1.2-0.5-2.4-0.5-3.6,0c-0.7,0.3-1.4,0.6-2,1c-13.7,8.1-27.4,16.3-41.1,24.4c-10.6,6.3-21.2,12.5-31.8,18.8
	c-0.7,0.4-1.4,1.1-2.3,1c-0.3-0.8-0.1-1.6-0.1-2.4c0-8.5,0-17-0.1-25.5c0-1.9,0.7-3.1,2.4-4c3.9-2.2,7.7-4.5,11.6-6.8
	c1.3-0.8,2.5-1.5,3.8-2.2c0.3-0.2,0.7-0.3,0.8-0.7c-0.1-0.3-0.4-0.4-0.7-0.6c-4.6-2.7-9.2-5.5-13.8-8.1c-0.5-0.3-1.1-0.6-1.6-1
	c-1.5-1.1-2.3-2.5-2.5-4.4c0-0.5-0.1-0.9,0-1.4c0.2-8.3,0.1-16.7,0.1-25c0-0.3,0-0.6,0-0.9c0-0.4,0.2-0.5,0.6-0.3
	c0.3,0.2,0.6,0.4,0.9,0.5c13.1,7.8,26.3,15.5,39.4,23.3c0.1,0.1,0.2,0.1,0.3,0.2c1.3,1.1,2.9,1.2,4.5,0.9c1.7-0.3,3.3-0.8,4.7-1.6
	c0.5-0.3,1-0.7,1.3-1.2c0.4-0.7,0.2-1.5-0.5-1.8c-3.9-1.8-7.5-4.3-11.2-6.5c-11.6-6.9-23.3-13.9-35-20.6c-0.8-0.5-1.6-1-2.3-1.5
	c-1.8-1.3-2.7-3.2-2.8-5.4c0-0.6-0.1-1.2,0-1.8c0.3-7.7,0.1-15.4,0.1-23.1C-523.5-211.5-523.5-212.2-523.5-213z M-389-150
	c5.2,3.1,10.3,6.1,15.5,9.2c5.8,3.4,11.6,6.8,17.3,10.3c0.3,0.2,0.6,0.6,1.1,0.3c0-0.3,0-0.6,0-0.9c0-13.1,0-26.3,0-39.4
	c0-0.3,0-0.5,0-0.8c0-0.4-0.2-0.6-0.6-0.4c-0.3,0.1-0.5,0.3-0.8,0.5c-11,6.5-22,13-32.9,19.5c-0.3,0.2-0.7,0.4-1.1,0.7
	C-389.8-150.5-389.4-150.2-389-150z"/>
</svg>
